<?xml version="1.0" encoding="utf-8"?>
<!-- Generator: Adobe Illustrator 26.3.1, SVG Export Plug-In . SVG Version: 6.00 Build 0)  -->
<svg version="1.1" id="Layer_1" xmlns="http://www.w3.org/2000/svg" xmlns:xlink="http://www.w3.org/1999/xlink" x="0px" y="0px"
	 viewBox="0 0 1200 1200" style="enable-background:new 0 0 1200 1200;" xml:space="preserve">
<style type="text/css">
	.st0{fill:#2561A1;}
	.st1{fill:#FFFFFF;}
	.st2{fill:#F8CA4D;}
	.st3{fill:#B9D7FF;}
	.st4{fill:#FFDC7B;}
	.st5{fill:#82B7FF;}
	.st6{fill:#3498DB;}
	.st7{fill:#E84131;}
</style>
<g>
	<rect class="st0" width="1200" height="1200"/>
	<g>
		<path class="st1" d="M245.86,197.56c-0.08,0-0.16,0.02-0.24,0.02c1.54-3.57,2.41-7.5,2.41-11.63c0-16.21-13.14-29.35-29.35-29.35
			c-5.73,0-11.06,1.67-15.57,4.5c-6.11-14.85-20.71-25.31-37.76-25.31c-22.55,0-40.83,18.28-40.83,40.83c0,1.7,0.14,3.37,0.34,5.02
			c-0.11,0-0.23-0.02-0.34-0.02c-15.12,0-27.38,12.26-27.38,27.38c0,15.12,12.26,27.38,27.38,27.38h121.35
			c10.72,0,19.42-8.69,19.42-19.41C265.27,206.25,256.58,197.56,245.86,197.56z"/>
		<g>
			
				<ellipse transform="matrix(0.8941 -0.4479 0.4479 0.8941 24.3751 475.2492)" class="st2" cx="1016.97" cy="186.09" rx="30.67" ry="30.67"/>
			<g>
				<path class="st2" d="M1016.97,143.77L1016.97,143.77c-2.03,0-3.68-1.65-3.68-3.68v-26.15c0-2.03,1.65-3.68,3.68-3.68l0,0
					c2.03,0,3.68,1.65,3.68,3.68v26.15C1020.64,142.13,1019,143.77,1016.97,143.77z"/>
				<path class="st2" d="M1016.97,261.91L1016.97,261.91c-2.03,0-3.68-1.65-3.68-3.68v-26.15c0-2.03,1.65-3.68,3.68-3.68l0,0
					c2.03,0,3.68,1.65,3.68,3.68v26.15C1020.64,260.27,1019,261.91,1016.97,261.91z"/>
			</g>
			<g>
				<path class="st2" d="M1046.89,156.17L1046.89,156.17c-1.44-1.44-1.44-3.76,0-5.2l18.49-18.49c1.44-1.44,3.76-1.44,5.2,0l0,0
					c1.44,1.44,1.44,3.76,0,5.2l-18.49,18.49C1050.65,157.6,1048.33,157.6,1046.89,156.17z"/>
				<path class="st2" d="M963.35,239.71L963.35,239.71c-1.44-1.44-1.44-3.76,0-5.2l18.49-18.49c1.44-1.44,3.76-1.44,5.2,0l0,0
					c1.44,1.44,1.44,3.76,0,5.2l-18.49,18.49C967.11,241.14,964.79,241.14,963.35,239.71z"/>
			</g>
			<g>
				<path class="st2" d="M1059.28,186.09L1059.28,186.09c0-2.03,1.65-3.68,3.68-3.68h26.15c2.03,0,3.68,1.65,3.68,3.68l0,0
					c0,2.03-1.65,3.68-3.68,3.68h-26.15C1060.93,189.77,1059.28,188.12,1059.28,186.09z"/>
				<path class="st2" d="M941.14,186.09L941.14,186.09c0-2.03,1.65-3.68,3.68-3.68h26.15c2.03,0,3.68,1.65,3.68,3.68l0,0
					c0,2.03-1.65,3.68-3.68,3.68h-26.15C942.79,189.77,941.14,188.12,941.14,186.09z"/>
			</g>
			<g>
				<path class="st2" d="M1046.89,216.01L1046.89,216.01c1.44-1.44,3.76-1.44,5.2,0l18.49,18.49c1.44,1.44,1.44,3.76,0,5.2l0,0
					c-1.44,1.44-3.76,1.44-5.2,0l-18.49-18.49C1045.45,219.78,1045.45,217.45,1046.89,216.01z"/>
				<path class="st2" d="M963.35,132.48L963.35,132.48c1.44-1.44,3.76-1.44,5.2,0l18.49,18.49c1.44,1.44,1.44,3.76,0,5.2l0,0
					c-1.44,1.44-3.76,1.44-5.2,0l-18.49-18.49C961.92,136.24,961.92,133.91,963.35,132.48z"/>
			</g>
		</g>
		<g>
			<path class="st3" d="M839.66,176.37c-0.07,0-0.13,0.02-0.2,0.02c1.28-2.96,2-6.22,2-9.65c0-13.44-10.9-24.34-24.34-24.34
				c-4.75,0-9.17,1.38-12.92,3.74c-5.07-12.32-17.17-21-31.32-21c-18.7,0-33.86,15.16-33.86,33.86c0,1.41,0.11,2.8,0.28,4.17
				c-0.1,0-0.19-0.01-0.28-0.01c-12.54,0-22.71,10.17-22.71,22.71c0,12.54,10.17,22.71,22.71,22.71h100.64
				c8.89,0,16.1-7.21,16.1-16.1C855.77,183.58,848.56,176.37,839.66,176.37z"/>
			<path class="st1" d="M799.31,197.56c-0.08,0-0.16,0.02-0.24,0.02c1.54-3.57,2.41-7.5,2.41-11.63c0-16.21-13.14-29.35-29.35-29.35
				c-5.73,0-11.06,1.67-15.57,4.5c-6.11-14.85-20.71-25.31-37.76-25.31c-22.55,0-40.83,18.28-40.83,40.83c0,1.7,0.14,3.37,0.34,5.02
				c-0.11,0-0.23-0.02-0.34-0.02c-15.12,0-27.38,12.26-27.38,27.38c0,15.12,12.26,27.38,27.38,27.38h121.35
				c10.72,0,19.42-8.69,19.42-19.41C818.73,206.25,810.04,197.56,799.31,197.56z"/>
		</g>
		<g>
			<g>
				
					<ellipse transform="matrix(0.1615 -0.9869 0.9869 0.1615 204.3129 544.6019)" class="st4" cx="422.64" cy="152.07" rx="26.02" ry="26.02"/>
				<g>
					<path class="st4" d="M422.64,116.16L422.64,116.16c-1.72,0-3.12-1.4-3.12-3.12V90.85c0-1.72,1.4-3.12,3.12-3.12l0,0
						c1.72,0,3.12,1.4,3.12,3.12v22.19C425.76,114.76,424.36,116.16,422.64,116.16z"/>
					<path class="st4" d="M422.64,216.41L422.64,216.41c-1.72,0-3.12-1.4-3.12-3.12V191.1c0-1.72,1.4-3.12,3.12-3.12l0,0
						c1.72,0,3.12,1.4,3.12,3.12v22.19C425.76,215.02,424.36,216.41,422.64,216.41z"/>
				</g>
				<g>
					<path class="st4" d="M448.03,126.68L448.03,126.68c-1.22-1.22-1.22-3.19,0-4.41l15.69-15.69c1.22-1.22,3.19-1.22,4.41,0l0,0
						c1.22,1.22,1.22,3.19,0,4.41l-15.69,15.69C451.22,127.9,449.25,127.9,448.03,126.68z"/>
					<path class="st4" d="M377.14,197.57L377.14,197.57c-1.22-1.22-1.22-3.19,0-4.41l15.69-15.69c1.22-1.22,3.19-1.22,4.41,0l0,0
						c1.22,1.22,1.22,3.19,0,4.41l-15.69,15.69C380.33,198.78,378.36,198.78,377.14,197.57z"/>
				</g>
				<g>
					<path class="st4" d="M458.55,152.07L458.55,152.07c0-1.72,1.4-3.12,3.12-3.12h22.19c1.72,0,3.12,1.4,3.12,3.12l0,0
						c0,1.72-1.4,3.12-3.12,3.12h-22.19C459.94,155.19,458.55,153.79,458.55,152.07z"/>
					<path class="st4" d="M358.29,152.07L358.29,152.07c0-1.72,1.4-3.12,3.12-3.12h22.19c1.72,0,3.12,1.4,3.12,3.12l0,0
						c0,1.72-1.4,3.12-3.12,3.12h-22.19C359.69,155.19,358.29,153.79,358.29,152.07z"/>
				</g>
				<g>
					<path class="st4" d="M448.03,177.46L448.03,177.46c1.22-1.22,3.19-1.22,4.41,0l15.69,15.69c1.22,1.22,1.22,3.19,0,4.41l0,0
						c-1.22,1.22-3.19,1.22-4.41,0l-15.69-15.69C446.81,180.65,446.81,178.68,448.03,177.46z"/>
					<path class="st4" d="M377.14,106.57L377.14,106.57c1.22-1.22,3.19-1.22,4.41,0l15.69,15.69c1.22,1.22,1.22,3.19,0,4.41l0,0
						c-1.22,1.22-3.19,1.22-4.41,0l-15.69-15.69C375.92,109.76,375.92,107.79,377.14,106.57z"/>
				</g>
			</g>
			<path class="st1" d="M541.87,197.56c-0.08,0-0.16,0.02-0.24,0.02c1.54-3.57,2.41-7.5,2.41-11.63c0-16.21-13.14-29.35-29.35-29.35
				c-5.73,0-11.06,1.67-15.57,4.5c-6.11-14.85-20.71-25.31-37.76-25.31c-22.55,0-40.83,18.28-40.83,40.83c0,1.7,0.14,3.37,0.34,5.02
				c-0.11,0-0.23-0.02-0.34-0.02c-15.12,0-27.38,12.26-27.38,27.38c0,15.12,12.26,27.38,27.38,27.38h121.35
				c10.72,0,19.42-8.69,19.42-19.41C561.29,206.25,552.6,197.56,541.87,197.56z"/>
		</g>
		<g>
			<path class="st1" d="M245.86,469.75c-0.08,0-0.16,0.02-0.24,0.02c1.54-3.57,2.41-7.5,2.41-11.63c0-16.21-13.14-29.35-29.35-29.35
				c-5.73,0-11.06,1.67-15.57,4.5c-6.11-14.85-20.71-25.31-37.76-25.31c-22.55,0-40.83,18.28-40.83,40.83c0,1.7,0.14,3.37,0.34,5.02
				c-0.11,0-0.23-0.02-0.34-0.02c-15.12,0-27.38,12.26-27.38,27.38c0,15.12,12.26,27.38,27.38,27.38h121.35
				c10.72,0,19.42-8.69,19.42-19.41C265.27,478.45,256.58,469.75,245.86,469.75z"/>
			<path class="st3" d="M150.94,556.42c-3.3,6.86-11.53,9.75-18.39,6.45c-6.86-3.3-9.75-11.53-6.45-18.39
				c3.3-6.86,24.63-19.41,24.63-19.41S154.24,549.56,150.94,556.42z"/>
			<path class="st3" d="M185.21,556.42c-3.3,6.86-11.53,9.75-18.39,6.45c-6.86-3.3-9.75-11.53-6.45-18.39
				c3.3-6.86,24.63-19.41,24.63-19.41S188.51,549.56,185.21,556.42z"/>
			<path class="st3" d="M219.97,556.42c-3.3,6.86-11.53,9.75-18.39,6.45c-6.86-3.3-9.75-11.53-6.45-18.39
				c3.3-6.86,24.63-19.41,24.63-19.41S223.27,549.56,219.97,556.42z"/>
		</g>
		<g>
			<path class="st3" d="M690.42,1064.32c-3.3,6.86-0.41,15.1,6.45,18.39c6.86,3.3,15.1,0.41,18.39-6.45
				c3.3-6.86-0.22-31.36-0.22-31.36S693.71,1057.46,690.42,1064.32z"/>
			<path class="st3" d="M727.19,1064.32c-3.3,6.86-0.41,15.1,6.45,18.39c6.86,3.3,15.1,0.41,18.39-6.45
				c3.3-6.86-0.22-31.36-0.22-31.36S730.49,1057.46,727.19,1064.32z"/>
			<path class="st3" d="M742.88,1031.85c3.3-6.86-0.22-31.36-0.22-31.36s-21.33,12.55-24.63,19.41c-3.3,6.86-0.41,15.1,6.45,18.39
				C731.35,1041.6,739.58,1038.71,742.88,1031.85z"/>
			<path class="st3" d="M764.52,1038.3c6.86,3.3,15.1,0.41,18.39-6.45c3.3-6.86-0.22-31.36-0.22-31.36s-21.33,12.55-24.63,19.41
				C754.77,1026.77,757.66,1035.01,764.52,1038.3z"/>
			<path class="st3" d="M776.74,990.99c3.3-6.86-0.22-31.36-0.22-31.36s-21.33,12.55-24.63,19.41c-3.3,6.86-0.41,15.1,6.45,18.4
				C765.2,1000.73,773.44,997.85,776.74,990.99z"/>
			<path class="st3" d="M786.08,1044.9c0,0-21.33,12.55-24.63,19.41c-3.3,6.86-0.41,15.1,6.45,18.39c6.86,3.3,15.1,0.41,18.39-6.45
				C789.59,1069.4,786.08,1044.9,786.08,1044.9z"/>
		</g>
		<g>
			<path class="st3" d="M524.45,469.75c-0.08,0-0.16,0.02-0.24,0.02c1.54-3.57,2.41-7.5,2.41-11.63c0-16.21-13.14-29.35-29.35-29.35
				c-5.73,0-11.06,1.67-15.57,4.5c-6.11-14.85-20.71-25.31-37.76-25.31c-22.55,0-40.83,18.28-40.83,40.83c0,1.7,0.14,3.37,0.34,5.02
				c-0.11,0-0.23-0.02-0.34-0.02c-15.12,0-27.38,12.26-27.38,27.38c0,15.12,12.26,27.38,27.38,27.38h121.35
				c10.72,0,19.42-8.69,19.42-19.41C543.86,478.45,535.17,469.75,524.45,469.75z"/>
			<polygon class="st4" points="450.64,520.32 440.13,552.33 454.62,552.33 445.22,584.81 479.46,538.95 461.78,538.95 
				468.47,520.32 			"/>
		</g>
		<g>
			<path class="st3" d="M1081.62,469.77c-0.08,0-0.16,0.02-0.24,0.02c1.54-3.57,2.41-7.5,2.41-11.63
				c0-16.21-13.14-29.35-29.35-29.35c-5.73,0-11.06,1.67-15.57,4.5c-6.11-14.85-20.71-25.31-37.76-25.31
				c-22.55,0-40.83,18.28-40.83,40.83c0,1.7,0.14,3.37,0.34,5.02c-0.11,0-0.23-0.02-0.34-0.02c-15.12,0-27.38,12.26-27.38,27.38
				s12.26,27.38,27.38,27.38h121.35c10.72,0,19.42-8.69,19.42-19.41C1101.04,478.46,1092.34,469.77,1081.62,469.77z"/>
			<path class="st3" d="M969.31,556.43c-3.3,6.86-11.53,9.75-18.39,6.45c-6.86-3.3-9.75-11.53-6.45-18.39
				c3.3-6.86,24.63-19.41,24.63-19.41S972.61,549.57,969.31,556.43z"/>
			<path class="st3" d="M1089.43,556.43c-3.3,6.86-11.53,9.75-18.39,6.45c-6.86-3.3-9.75-11.53-6.45-18.39
				c3.3-6.86,24.63-19.41,24.63-19.41S1092.72,549.57,1089.43,556.43z"/>
			<polygon class="st4" points="1006.09,520.33 993.6,558.36 1010.82,558.36 999.65,596.96 1040.34,542.47 1019.33,542.47 
				1027.28,520.33 			"/>
		</g>
		<g>
			<path class="st1" d="M803.03,469.75c-0.08,0-0.16,0.02-0.24,0.02c1.54-3.57,2.41-7.5,2.41-11.63c0-16.21-13.14-29.35-29.35-29.35
				c-5.73,0-11.06,1.67-15.57,4.5c-6.11-14.85-20.71-25.31-37.76-25.31c-22.55,0-40.83,18.28-40.83,40.83c0,1.7,0.14,3.37,0.34,5.02
				c-0.11,0-0.23-0.02-0.34-0.02c-15.12,0-27.38,12.26-27.38,27.38c0,15.12,12.26,27.38,27.38,27.38h121.35
				c10.72,0,19.42-8.69,19.42-19.41C822.45,478.45,813.76,469.75,803.03,469.75z"/>
			<circle class="st1" cx="700.82" cy="535.28" r="5.99"/>
			<circle class="st1" cx="738.38" cy="535.28" r="5.99"/>
			<circle class="st1" cx="738.38" cy="583.42" r="5.99"/>
			<circle class="st1" cx="718.4" cy="558.85" r="5.99"/>
			<path class="st1" d="M764.75,558.85c0,3.31-2.68,5.99-5.99,5.99c-3.31,0-5.99-2.68-5.99-5.99c0-3.31,2.68-5.99,5.99-5.99
				C762.07,552.86,764.75,555.54,764.75,558.85z"/>
			<circle class="st1" cx="775.94" cy="535.28" r="5.99"/>
		</g>
		<path class="st4" d="M1051.32,797c9.3,0,18.06-2.37,25.71-6.55c-12.65,13.64-30.74,22.15-50.79,22.15
			c-38.29,0-69.33-31.05-69.33-69.33c0-38.29,31.05-69.33,69.33-69.33c20.05,0,38.13,8.51,50.79,22.15
			c-7.65-4.18-16.41-6.55-25.71-6.55c-29.68,0-53.73,24.05-53.73,53.73C997.58,772.94,1021.64,797,1051.32,797z"/>
		<g>
			<path class="st1" d="M793.49,748.1c-0.08,0-0.16,0.02-0.24,0.02c1.54-3.57,2.41-7.5,2.41-11.63c0-16.21-13.14-29.35-29.35-29.35
				c-5.73,0-11.06,1.67-15.57,4.5c-6.11-14.85-20.71-25.31-37.76-25.31c-22.55,0-40.83,18.28-40.83,40.83c0,1.7,0.14,3.37,0.34,5.02
				c-0.11,0-0.23-0.02-0.34-0.02c-15.12,0-27.38,12.26-27.38,27.38s12.26,27.38,27.38,27.38h121.35c10.72,0,19.42-8.69,19.42-19.41
				C812.91,756.79,804.21,748.1,793.49,748.1z"/>
			<path class="st1" d="M778.4,693.07h-62.06c-1.86,0-3.37-1.51-3.37-3.37l0,0c0-1.86,1.51-3.37,3.37-3.37h62.06
				c1.86,0,3.37,1.51,3.37,3.37l0,0C781.76,691.56,780.26,693.07,778.4,693.07z"/>
			<path class="st1" d="M828.62,693.07h-36.01c-1.86,0-3.37-1.51-3.37-3.37l0,0c0-1.86,1.51-3.37,3.37-3.37h36.01
				c1.86,0,3.37,1.51,3.37,3.37l0,0C831.99,691.56,830.48,693.07,828.62,693.07z"/>
			<path class="st1" d="M803.88,713.88h-37.12c-1.86,0-3.37-1.51-3.37-3.37l0,0c0-1.86,1.51-3.37,3.37-3.37h37.12
				c1.86,0,3.37,1.51,3.37,3.37l0,0C807.25,712.38,805.74,713.88,803.88,713.88z"/>
			<path class="st1" d="M828.44,713.88h-9.85c-1.86,0-3.37-1.51-3.37-3.37l0,0c0-1.86,1.51-3.37,3.37-3.37h9.85
				c1.86,0,3.37,1.51,3.37,3.37l0,0C831.8,712.38,830.3,713.88,828.44,713.88z"/>
			<path class="st1" d="M828.44,754.6h-61.68c-1.86,0-3.37-1.51-3.37-3.37l0,0c0-1.86,1.51-3.37,3.37-3.37h61.68
				c1.86,0,3.37,1.51,3.37,3.37l0,0C831.8,753.09,830.3,754.6,828.44,754.6z"/>
			<path class="st1" d="M828.44,786.93h-61.68c-1.86,0-3.37-1.51-3.37-3.37l0,0c0-1.86,1.51-3.37,3.37-3.37h61.68
				c1.86,0,3.37,1.51,3.37,3.37l0,0C831.8,785.42,830.3,786.93,828.44,786.93z"/>
		</g>
		<g>
			<path class="st1" d="M462,1098.61h-4.42c-2.53,0-4.58-2.05-4.58-4.58V949.67c0-2.53,2.05-4.58,4.58-4.58H462
				c2.53,0,4.58,2.05,4.58,4.58v144.36C466.58,1096.56,464.53,1098.61,462,1098.61z"/>
			<g>
				<path class="st1" d="M486.5,956.25c1.79,1.79,1.79,4.69,0,6.48l-26.58,26.6l-0.1-0.12l-0.12,0.12l-26.6-26.6
					c-1.79-1.79-1.79-4.69,0-6.48l3.12-3.12c1.79-1.79,4.69-1.79,6.48,0L456.57,967c1.79,1.79,4.69,1.79,6.48,0l13.85-13.86
					c1.79-1.79,4.69-1.79,6.48,0L486.5,956.25z"/>
				<path class="st1" d="M433.09,1087.46c-1.79-1.79-1.79-4.69,0-6.48l26.58-26.6l0.1,0.12l0.12-0.12l26.6,26.6
					c1.79,1.79,1.79,4.69,0,6.48l-3.12,3.12c-1.79,1.79-4.69,1.79-6.48,0l-13.87-13.87c-1.79-1.79-4.69-1.79-6.48,0l-13.85,13.86
					c-1.79,1.79-4.69,1.79-6.48,0L433.09,1087.46z"/>
			</g>
			<path class="st1" d="M383.03,1024.06v-4.42c0-2.53,2.05-4.58,4.58-4.58h144.36c2.53,0,4.58,2.05,4.58,4.58v4.42
				c0,2.53-2.05,4.58-4.58,4.58H387.61C385.08,1028.64,383.03,1026.59,383.03,1024.06z"/>
			<g>
				<path class="st1" d="M525.4,1048.56c-1.79,1.79-4.69,1.79-6.48,0l-26.6-26.58l0.12-0.1l-0.12-0.12l26.6-26.6
					c1.79-1.79,4.69-1.79,6.48,0l3.12,3.12c1.79,1.79,1.79,4.69,0,6.48l-13.87,13.87c-1.79,1.79-1.79,4.69,0,6.48l13.86,13.85
					c1.79,1.79,1.79,4.69,0,6.48L525.4,1048.56z"/>
				<path class="st1" d="M394.19,995.15c1.79-1.79,4.69-1.79,6.48,0l26.6,26.58l-0.12,0.1l0.12,0.12l-26.6,26.6
					c-1.79,1.79-4.69,1.79-6.48,0l-3.12-3.12c-1.79-1.79-1.79-4.69,0-6.48l13.87-13.87c1.79-1.79,1.79-4.69,0-6.48l-13.86-13.85
					c-1.79-1.79-1.79-4.69,0-6.48L394.19,995.15z"/>
			</g>
			<path class="st1" d="M423.13,1058.52L423.13,1058.52c-1.8-1.8-1.8-4.7-0.01-6.49l66.85-66.85c1.79-1.79,4.69-1.79,6.48,0
				l0.01,0.01c1.79,1.79,1.79,4.69,0,6.48l-66.85,66.85C427.82,1060.31,424.92,1060.31,423.13,1058.52z"/>
			<g>
				<path class="st1" d="M503.89,1001.78c0,2.53-2.05,4.58-4.58,4.58l-23.92,0.01l0.01-0.11h-0.12v-23.92
					c0-2.53,2.05-4.58,4.59-4.58h0.01c2.53,0,4.58,2.05,4.58,4.58v10.28c0,2.53,2.05,4.58,4.58,4.58l10.26,0
					C501.83,997.2,503.89,999.25,503.89,1001.78L503.89,1001.78z"/>
				<path class="st1" d="M415.7,1041.92c0-2.53,2.05-4.58,4.58-4.58l23.92-0.01l-0.01,0.11h0.12v23.92c0,2.53-2.05,4.58-4.59,4.58
					h-0.01c-2.53,0-4.58-2.05-4.58-4.58v-10.28c0-2.53-2.05-4.58-4.58-4.58l-10.26,0C417.75,1046.5,415.7,1044.45,415.7,1041.92
					L415.7,1041.92z"/>
			</g>
			<path class="st1" d="M423.12,985.19L423.12,985.19c1.8-1.8,4.7-1.8,6.49-0.01l66.85,66.85c1.79,1.79,1.79,4.69,0,6.48l-0.01,0.01
				c-1.79,1.79-4.69,1.79-6.48,0l-66.85-66.85C421.33,989.88,421.33,986.98,423.12,985.19z"/>
			<g>
				<path class="st1" d="M479.86,1065.95c-2.53,0-4.58-2.05-4.58-4.58l-0.01-23.92l0.11,0.01v-0.12h23.92
					c2.53,0,4.58,2.05,4.58,4.59v0.01c0,2.53-2.05,4.58-4.58,4.58h-10.28c-2.53,0-4.58,2.05-4.58,4.58l0,10.26
					C484.44,1063.89,482.39,1065.95,479.86,1065.95L479.86,1065.95z"/>
				<path class="st1" d="M439.72,977.76c2.53,0,4.58,2.05,4.58,4.58l0.01,23.92l-0.11-0.01v0.12h-23.92c-2.53,0-4.58-2.05-4.58-4.59
					l0-0.01c0-2.53,2.05-4.58,4.58-4.58h10.28c2.53,0,4.58-2.05,4.58-4.58l0-10.26C435.14,979.81,437.19,977.76,439.72,977.76
					L439.72,977.76z"/>
			</g>
		</g>
		<g>
			<path class="st4" d="M506.93,706c4.7,0,9.12-1.2,12.99-3.31c-6.39,6.89-15.53,11.19-25.65,11.19
				c-19.34,0-35.02-15.68-35.02-35.02c0-19.34,15.68-35.02,35.02-35.02c10.13,0,19.26,4.3,25.65,11.19
				c-3.86-2.11-8.29-3.31-12.99-3.31c-14.99,0-27.14,12.15-27.14,27.14C479.79,693.85,491.94,706,506.93,706z"/>
			<path class="st1" d="M524.45,748.1c-0.08,0-0.16,0.02-0.24,0.02c1.54-3.57,2.41-7.5,2.41-11.63c0-16.21-13.14-29.35-29.35-29.35
				c-5.73,0-11.06,1.67-15.57,4.5c-6.11-14.85-20.71-25.31-37.76-25.31c-22.55,0-40.83,18.28-40.83,40.83c0,1.7,0.14,3.37,0.34,5.02
				c-0.11,0-0.23-0.02-0.34-0.02c-15.12,0-27.38,12.26-27.38,27.38s12.26,27.38,27.38,27.38h121.35c10.72,0,19.42-8.69,19.42-19.41
				C543.86,756.79,535.17,748.1,524.45,748.1z"/>
		</g>
		<g>
			<g>
				<path class="st5" d="M1102.86,1005.3c-0.78-0.67-19.55-16.74-44.97,0.02c0,0-21.35-16.73-40.93,0c-19.57-16.73-40.92,0-40.92,0
					c-25.43-16.77-44.2-0.7-44.97-0.02c27.63-48.75,85.89-59.85,85.89-59.85S1075.24,956.55,1102.86,1005.3z"/>
			</g>
			<g>
				<path class="st5" d="M1006.98,1098.26c-7.49,0-13.58-6.09-13.58-13.58v-2.8c0-1.99,1.61-3.6,3.6-3.6c1.99,0,3.6,1.61,3.6,3.6
					v2.8c0,3.53,2.87,6.39,6.39,6.39c3.53,0,6.39-2.87,6.39-6.39V980.2c0-1.99,1.61-3.6,3.6-3.6c1.99,0,3.6,1.61,3.6,3.6v104.48
					C1020.56,1092.17,1014.47,1098.26,1006.98,1098.26z"/>
			</g>
		</g>
		<g>
			<path class="st1" d="M196.19,1036.46v-90.05c0-8.27-6.71-14.98-14.98-14.98c-8.27,0-14.98,6.71-14.98,14.98v90.05
				c-14.32,5.9-24.41,19.97-24.41,36.42c0,21.75,17.64,39.39,39.39,39.39c21.75,0,39.39-17.64,39.39-39.39
				C220.59,1056.44,210.51,1042.36,196.19,1036.46z"/>
			<path class="st3" d="M181.2,1105.08c-17.75,0-32.2-14.44-32.2-32.2c0-13.09,7.83-24.78,19.95-29.77l4.45-1.83v-94.87
				c0-4.3,3.49-7.79,7.79-7.79s7.79,3.49,7.79,7.79v94.87l4.45,1.83c12.12,4.99,19.95,16.68,19.95,29.77
				C213.4,1090.64,198.96,1105.08,181.2,1105.08z"/>
			<path class="st6" d="M193.45,1043.11l-4.45-1.83v-14.34h-15.58v14.34l-4.45,1.83c-12.12,4.99-19.95,16.68-19.95,29.77
				c0,17.75,14.44,32.2,32.2,32.2s32.2-14.44,32.2-32.2C213.4,1059.79,205.57,1048.1,193.45,1043.11z"/>
			<g>
				<path class="st1" d="M181.21,1089.24L181.21,1089.24c-1.53,0-2.79-1.26-2.79-2.79v-25.73c0-1.53,1.26-2.79,2.79-2.79l0,0
					c1.53,0,2.79,1.26,2.79,2.79v25.73C183.99,1087.98,182.74,1089.24,181.21,1089.24z"/>
				<path class="st1" d="M168.28,1082.41L168.28,1082.41c-0.86-1.27-0.54-3.01,0.73-3.88l21.25-14.5c1.27-0.86,3.01-0.54,3.88,0.73
					l0,0c0.87,1.27,0.54,3.01-0.73,3.88l-21.25,14.5C170.89,1084.01,169.14,1083.68,168.28,1082.41z"/>
				<path class="st1" d="M194.13,1082.41L194.13,1082.41c0.87-1.27,0.54-3.01-0.73-3.88l-21.25-14.5c-1.27-0.86-3.01-0.54-3.88,0.73
					l0,0c-0.86,1.27-0.54,3.01,0.73,3.88l21.25,14.5C191.52,1084.01,193.27,1083.68,194.13,1082.41z"/>
			</g>
		</g>
		<g>
			<path class="st1" d="M196.19,757.88v-90.05c0-8.27-6.71-14.98-14.98-14.98c-8.27,0-14.98,6.71-14.98,14.98v90.05
				c-14.32,5.9-24.41,19.97-24.41,36.42c0,21.75,17.64,39.39,39.39,39.39c21.75,0,39.39-17.64,39.39-39.39
				C220.59,777.85,210.51,763.77,196.19,757.88z"/>
			<path class="st3" d="M181.2,826.49c-17.75,0-32.2-14.44-32.2-32.2c0-13.09,7.83-24.78,19.95-29.77l4.45-1.83v-94.87
				c0-4.3,3.49-7.79,7.79-7.79s7.79,3.49,7.79,7.79v94.87l4.45,1.83c12.12,4.99,19.95,16.68,19.95,29.77
				C213.4,812.05,198.96,826.49,181.2,826.49z"/>
			<path class="st7" d="M193.45,764.53l-4.45-1.83v-81.07h-15.58v81.07l-4.45,1.83c-12.12,4.99-19.95,16.68-19.95,29.77
				c0,17.75,14.44,32.2,32.2,32.2s32.2-14.44,32.2-32.2C213.4,781.2,205.57,769.52,193.45,764.53z"/>
			<path class="st1" d="M181.21,811.61c-24.3,0-5.72-29.44-5.72-29.44v6.82l5.72-13.63l5.71,13.63v-6.82
				C186.91,782.17,205.5,811.61,181.21,811.61z"/>
		</g>
	</g>
</g>
</svg>
